<svg width="16" height="16" viewBox="0 0 16 16" fill="none" xmlns="http://www.w3.org/2000/svg">
<g clip-path="url(#clip0_477_2)">
<circle cx="8" cy="8" r="8" fill="#FF0085"/>
<path d="M7.93737 10.5709C7.88553 10.5709 7.83369 10.5512 7.78186 10.5117C7.74298 10.459 7.73002 10.3998 7.74298 10.3339C7.78186 10.1233 7.87905 9.83363 8.03456 9.46499C8.20302 9.08318 8.39741 8.66188 8.61771 8.20108C8.85097 7.74028 9.08423 7.27947 9.31749 6.81867C9.56372 6.3447 9.7905 5.91023 9.99784 5.51526C10.2052 5.12029 10.3672 4.81089 10.4838 4.58707C10.5875 4.37642 10.7235 4.1921 10.892 4.03411C11.0734 3.87612 11.2484 3.72472 11.4168 3.57989C11.5464 3.39557 11.6112 3.22442 11.6112 3.06643C11.6112 2.86894 11.5205 2.71753 11.3391 2.61221C11.1706 2.49372 10.9827 2.43447 10.7754 2.43447C10.6847 2.43447 10.594 2.44764 10.5032 2.47397C10.4255 2.48713 10.3542 2.52663 10.2894 2.59246C10.095 2.76361 9.81641 3.00718 9.45356 3.32316C9.09071 3.63914 8.70842 3.97487 8.3067 4.33034C7.90497 4.68582 7.53564 5.01496 7.1987 5.31777C6.86177 5.62059 6.61555 5.85099 6.46004 6.00898C6.34341 6.12747 6.2851 6.25913 6.2851 6.40395C6.2851 6.50928 6.31749 6.60802 6.38229 6.70018C6.44708 6.77917 6.53132 6.81867 6.63499 6.81867C6.7257 6.81867 6.82937 6.77917 6.946 6.70018C6.99784 6.67385 7.03672 6.66068 7.06264 6.66068C7.19222 6.66068 7.25702 6.72651 7.25702 6.85817C7.25702 6.924 7.2311 6.97666 7.17927 7.01616C6.99784 7.14782 6.81641 7.21365 6.63499 7.21365C6.42765 7.21365 6.2527 7.13465 6.11015 6.97666C5.9676 6.81867 5.89633 6.63435 5.89633 6.4237C5.89633 6.16038 6 5.9234 6.20734 5.71275C6.34989 5.56792 6.58963 5.34411 6.92657 5.04129C7.2635 4.73848 7.63283 4.40934 8.03456 4.05386C8.43629 3.68522 8.81857 3.34291 9.18143 3.02693C9.54428 2.71095 9.82289 2.46738 10.0173 2.29623C10.2505 2.09874 10.5032 2 10.7754 2C11.0864 2 11.365 2.11191 11.6112 2.33573C11.8704 2.54638 12 2.80311 12 3.10593C12 3.38241 11.8834 3.63914 11.6501 3.87612L11.5724 3.95512C11.4428 4.08677 11.3067 4.21843 11.1641 4.35009C11.0346 4.46858 10.9244 4.61341 10.8337 4.78456C10.743 4.96888 10.5551 5.33094 10.27 5.87074C9.98488 6.39737 9.6933 6.97008 9.39525 7.58887C9.08423 8.20766 8.80562 8.78695 8.5594 9.32675C8.31318 9.86655 8.17063 10.2286 8.13175 10.4129C8.11879 10.5183 8.054 10.5709 7.93737 10.5709ZM6.16847 11.1634C6.11663 11.1634 6.06479 11.1436 6.01296 11.1041C5.97408 11.0646 5.96112 11.012 5.97408 10.9461C5.98704 10.8276 6.07127 10.5578 6.22678 10.1364C6.39525 9.71514 6.60259 9.22801 6.84881 8.67505C7.10799 8.10892 7.36717 7.54279 7.62635 6.97666C7.89849 6.41053 8.14471 5.91023 8.36501 5.47576C8.58531 5.04129 8.74082 4.75823 8.83153 4.62657C8.87041 4.57391 8.92225 4.54758 8.98704 4.54758C9.05184 4.54758 9.11015 4.58049 9.16199 4.64632C9.21382 4.71215 9.20734 4.78456 9.14255 4.86355C9.05184 4.99521 8.89633 5.27169 8.67603 5.693C8.46868 6.1143 8.23542 6.60144 7.97624 7.1544C7.71706 7.70736 7.46436 8.26032 7.21814 8.81329C6.97192 9.35308 6.77106 9.82705 6.61555 10.2352C6.46004 10.6302 6.37581 10.8737 6.36285 10.9659C6.36285 11.0975 6.29806 11.1634 6.16847 11.1634ZM3.85529 13C3.57019 13 3.35637 12.9276 3.21382 12.7828C3.07127 12.6511 3 12.4931 3 12.3088C3 12.0455 3.12959 11.7822 3.38877 11.5189C3.63499 11.2555 3.9784 11.1239 4.41901 11.1239H5.50756C5.63715 11.1239 5.70194 11.1897 5.70194 11.3214C5.70194 11.453 5.63715 11.5189 5.50756 11.5189C5.32613 11.5189 5.14471 11.5189 4.96328 11.5189C4.78186 11.5057 4.60043 11.4991 4.41901 11.4991C4.13391 11.4991 3.89417 11.5913 3.69978 11.7756C3.49244 11.9467 3.38877 12.1179 3.38877 12.289C3.38877 12.4997 3.54428 12.605 3.85529 12.605H9.12311C9.21382 12.605 9.33045 12.5194 9.473 12.3483C9.62851 12.1771 9.70626 12.0126 9.70626 11.8546C9.70626 11.7624 9.66739 11.6834 9.58963 11.6176C9.51188 11.5518 9.36933 11.5189 9.16199 11.5189H7.49028C7.36069 11.5189 7.2959 11.453 7.2959 11.3214C7.2959 11.1897 7.36069 11.1239 7.49028 11.1239H9.16199C9.49892 11.1239 9.73866 11.1963 9.88121 11.3411C10.0238 11.4728 10.095 11.6373 10.095 11.8348C10.095 12.0981 9.99136 12.3615 9.78402 12.6248C9.58963 12.8749 9.36933 13 9.12311 13H3.85529Z" fill="black"/>
</g>
<defs>
<clipPath id="clip0_477_2">
<rect width="16" height="16" fill="white"/>
</clipPath>
</defs>
</svg>
